<svg version="1" xmlns="http://www.w3.org/2000/svg" width="4266.667" height="4266.667" viewBox="0 0 3200.000000 3200.000000"><path d="M0 1600v1600h159.5l570-570 570-570 .1-113.5.1-113.5-568.9 569c-312.9 312.9-569.3 569.2-569.8 569.5-.6.4-.9-566.7-.9-1405.5V159.9l360.7.4c198.4.2 361.8.6 363.2.9 1.4.3 6.8.9 12 1.2 5.2.4 10.9.9 12.5 1.2 1.7.2 5.6.6 8.9.9 3.2.2 6.6.7 7.5.9.9.3 4.3.7 7.6 1.1 3.3.3 11.4 1.5 18 2.6 14.8 2.5 15.4 2.6 18.5 3.3 1.4.3 3.7.8 5.3 1 1.5.3 3.5.7 4.5 1 .9.3 3.3.7 5.2 1 3.3.5 33.9 8.3 47.5 12 10.6 3 40.6 13.2 55 18.9 67.6 26.3 136.9 67.3 188.5 111.3 22.8 19.5 25.7 22.1 46.5 42.9 43.4 43.3 76.9 87.1 108.6 142 8.1 14 24.7 46.3 29.2 56.5.8 1.9 2.5 5.7 3.7 8.5 15.2 34 33.2 88.7 40.4 123 3.4 16 4.7 22.6 6.1 31 1 5.5 1.8 10.7 2 11.5 1.7 9.4 4.8 35.1 6 49.9 1.5 19.4 1.9 28.8 1.9 54.6 0 25.6-.7 50.7-1.8 58.7-.2 1.4-.7 6.8-1.1 12-.4 5.1-.9 9.6-1 9.9-.2.3-.6 3.2-1 6.4-.9 9.6-4.5 32.4-7 45-.8 3.8-1.6 8.1-1.9 9.5-1.1 6-3.7 17.2-6.1 26.5-1.4 5.5-2.8 10.7-3 11.5-.5 2.1-3.9 13.8-6.9 24-12.2 40.7-35.8 95.5-56.5 131.4-2.8 4.9-5.1 9-5.1 9.2 0 .4-16 25.9-21.5 34.4-35.8 54.5-86.9 110.5-139.1 152.6-20.4 16.3-30.9 24-50.6 37.2-54.5 36.5-115.1 65.2-177 84.1-14.8 4.5-36.8 10.5-42.2 11.5-1.1.2-4.1.9-6.6 1.6-2.5.7-5.6 1.4-7 1.6-1.4.3-5.4 1.1-9 1.9-3.6.7-12.1 2.3-19 3.4-6.9 1.2-13.6 2.3-15 2.5-1.4.3-4.7.7-7.5 1.1-2.7.3-6.3.8-8 1-6.4.9-11.3 1.4-28 3-23.1 2.2-36.7 2.4-197.1 2.4l-140.1.1v160.1l164.6-.4c90.5-.2 166.2-.7 168.1-1 1.9-.2 8-.8 13.5-1.2 5.5-.3 11.4-.8 13-1 1.7-.2 6.1-.7 9.9-1 3.8-.4 7.9-.8 9-1 1.2-.2 4.4-.6 7.1-1 2.8-.3 6.5-.8 8.3-1.1 22.7-3.1 38-5.7 61.7-10.5 7.7-1.6 34.8-8.3 53.5-13.3 3-.8 21.7-6.5 30-9.1 9.3-3 35.3-12.1 38.5-13.5 1.1-.5 7.4-3 14-5.6 6.6-2.5 13.8-5.5 16-6.5 2.2-1 10.8-4.8 19-8.4 16.9-7.5 49.2-23.9 66.7-33.8 93.9-53.3 177.1-124.3 244.3-208.7 8.6-10.8 15-19.2 20.2-26.3l2.3-3.1.1 523.4c0 509 .1 538 1.4 556 .4 4.7.8 11.4 1.1 15 .4 7.5 4.2 42.3 4.9 46 .3 1.4.8 5.2 1.1 8.5.4 3.3.8 6.3 1 6.6.2.4.6 2.7.9 5 1.6 12.3 9.5 51 14.5 71.1 6.6 25.9 20.4 70.9 25 81.3.4 1.1 2 5.4 3.5 9.5s3.1 8.4 3.6 9.5c.4 1.1 2.2 5.5 3.9 9.9 9.7 25 37.1 81.5 48 99.1 1 1.7 2.5 4.2 3.2 5.5 1.8 3.4 7.9 13.6 10 16.8 1 1.5 2.5 4 3.4 5.7.9 1.6 3.3 5.5 5.3 8.5 2 3.1 4.1 6.3 4.6 7.2.6.9 4.8 7.2 9.4 14 13.6 19.7 29.9 41.6 46 61.3 2.1 2.7 12.3 14.7 13.6 16.1.6.6 3.5 3.9 6.5 7.4 23.1 26.5 60.2 62.6 89.5 87 5 4.1 9.2 7.7 9.5 8 6.7 7.1 73.3 54.6 87.5 62.4 1.7.9 4.2 2.4 5.7 3.4 16.2 10.5 62.6 35.1 89.3 47.4 28.4 13.1 70.1 28.9 100 37.9 18.6 5.7 51.3 14.4 61 16.4 1.1.2 5.4 1.1 9.5 2 4.1 1 8.4 1.8 9.5 2 1.1.2 8.1 1.4 15.5 2.8s15.1 2.8 17 3.1c6.4 1.1 16.4 2.5 21.5 3.1 2.8.4 5.9.8 7.1 1 1.1.2 5.2.6 9 1s7.9.8 9.1 1c1.2.2 5.7.6 10 1s9.4.9 11.3 1c27.6 2.7 103.9 2.7 135 0 6.7-.6 17.1-1.6 20.5-2 1.7-.2 5.9-.6 9.5-1 3.6-.3 7.2-.8 8-1 .8-.2 4-.7 7-1 3-.3 6.6-.7 8-.9 1.4-.3 4.3-.7 6.5-1.1 2.2-.3 6.6-1 9.8-1.6 3.2-.5 7-1.2 8.5-1.4 10.5-1.5 39.6-7.7 58.9-12.4 33.9-8.5 89.4-26.6 111.8-36.5 1.7-.8 8.6-3.7 15.5-6.6 14-5.9 58.3-27.5 70.5-34.4 4.4-2.5 8.7-4.8 9.5-5.2 3.3-1.6 37.1-22.1 46.5-28.2 11.1-7.3 32.7-22.2 33.5-23.1.3-.3 2.8-2.2 5.5-4 2.8-1.9 5.2-3.8 5.5-4.1.3-.3 3-2.3 5.9-4.5 35.3-25.6 89.1-75.8 122.7-114.5 2.1-2.5 4.1-4.7 4.4-5 .3-.3 3.9-4.6 8-9.5 4.1-5 7.7-9.2 8-9.5.3-.3 2.8-3.4 5.5-7 2.8-3.6 5.3-6.7 5.6-7 2-1.8 35.9-48.5 35.9-49.5 0-.2 3.1-5.1 6.8-10.7 18.5-27.9 46.2-78.3 58.7-106.8 1.5-3.6 4.3-9.7 6-13.5 1.8-3.9 5.4-12.4 8-19 2.6-6.6 5.3-13.4 6-15 4.3-10.1 21.5-61.8 24-72.1.3-1 2.9-11.4 5.9-22.9 3-11.6 6.5-26.6 8-33.5 2.5-12.3 2.9-14.4 4.2-22.5.3-2.2.7-4.2.9-4.5.2-.3.6-2.6 1-5 .3-2.5 1.7-11.7 3-20.5s2.7-18.9 3-22.5c.4-3.6.8-7.6 1-9 .2-1.4.7-6.1 1-10.5.4-4.4.8-9.4 1-11 .2-1.7.7-8.5 1-15.3l.7-12.2-80.3.2-80.3.3-.2 4c-.2 5.9-1.9 24.9-2.9 32.5-.2 1.9-.7 6-1 9-.3 3-.8 6.6-1 8-.3 1.4-.7 3.8-.9 5.5-2.1 14.2-4 24.5-9.2 50.4-.3 1.4-1.9 7.7-3.5 14-1.7 6.4-3.2 12.3-3.4 13.2-.2.9-1.3 4.9-2.5 9-20.7 72.2-53.2 140.7-95.4 201.4-9.3 13.3-22.6 31.1-29.7 39.6-2 2.4-6.5 7.8-9.9 11.9-18.6 22.4-50.8 55-73.5 74.5-34.6 29.7-75.3 58.5-110.5 78.2-12.4 7-17.1 9.5-31 16.4-36.8 18.3-71.8 32.2-111 43.9-7.4 2.2-14.4 4.2-15.5 4.5-1.1.2-5.6 1.3-10 2.5-4.4 1.1-9.3 2.2-10.9 2.5-1.6.3-3.2.8-3.6 1-.4.2-2.2.7-4.1 1-1.9.3-5.4 1.1-7.9 1.6-2.5.6-5.6 1.3-7 1.5-1.4.2-4.8.9-7.6 1.5-2.8.5-6.2 1.2-7.7 1.4-1.5.3-5.3.9-8.5 1.5-9.9 1.7-17.4 2.7-26.2 3.6-2.5.2-5.2.6-6 .9-.8.2-5.5.7-10.5 1.1-4.9.3-10.1.8-11.5 1-8.2 1.1-31.3 1.8-56.5 1.8-37.9 0-54.9-1.1-89-5.5-8.2-1-15.9-2.1-17-2.3-1.1-.2-6.5-1.1-12-2.1-5.5-.9-14.3-2.6-19.5-3.7-5.2-1-10.4-2.1-11.5-2.4-2-.4-24.4-6-27.7-6.9-1-.3-2.6-.7-3.7-.9-15.6-3.5-70-22.8-90.9-32.3-3.1-1.4-7.3-3.2-9.2-4.1-5.4-2.3-37.6-18.4-45.5-22.7-72.5-39.6-140.1-95.3-195.5-161-26.1-31-53.8-71.5-75-110-3.9-7.1-22-43.2-22-43.9 0-.3-1.5-3.8-3.4-7.8-9.6-20.6-29.4-76.1-33.2-92.9-.2-1.1-.6-2.7-.9-3.7-2.1-8.1-7.6-30.3-8-32.7-.3-1.7-1.4-7.3-2.5-12.5s-2.1-10.6-2.4-12c-.9-5.6-1.6-9.7-2.1-13-.2-1.9-.6-4.4-.9-5.5-.2-1.1-.7-4.7-1.1-8-.4-3.2-.8-6.6-1-7.5-.1-.8-.6-4.7-1-8.5-.4-3.9-.8-8.4-1.1-10-.2-1.7-.6-7.1-1-12-.9-13.2-1-13.9-1.7-15.5-.4-.8-.8-363.3-1-805.5-.2-442.2-.6-805.6-.9-807.5-.4-1.9-.9-7.8-1.3-13-.8-11.4-1.1-14.9-1.9-21.8-.3-2.8-.8-7.6-1.1-10.5-.3-2.8-.8-6.3-1-7.7-.3-1.4-.7-4.8-1-7.5-.3-2.8-.8-6.2-1-7.6-.3-1.4-.7-4.1-.9-6-.3-1.9-1-6.6-1.6-10.4-.7-3.9-1.4-8.4-1.7-10-9-55-32.2-132.3-55.9-186-1-2.2-1.8-4.2-1.9-4.5-.7-2.3-7.8-17.4-17.7-37-12.2-24.6-25-47.6-37.1-66.9-4-6.3-8.1-12.9-9.2-14.7-4.1-6.7-19.2-28.4-30.4-43.4-9.7-13.1-15.4-20.5-26-33.5-2.1-2.7-12.3-14.7-13.6-16.1-.5-.6-3.5-3.9-6.5-7.4-17.3-19.9-53.9-56.5-72-72-1.4-1.2-4-3.5-5.8-5.1-1.8-1.7-10.9-9.2-20.2-16.9-48.1-39.3-103.6-75.1-157.9-101.8-15.8-7.8-33.8-16.3-35.1-16.7-.3-.1-2.1-.8-4-1.7-1.9-.8-6-2.5-9-3.8-3-1.2-7.3-3-9.5-4-16-7-79.1-28.4-85.7-29-.4 0-2.7-.8-5-1.6-3.5-1.2-15.4-4.5-21.8-5.9-.8-.2-7.3-1.7-14.5-3.4-7.1-1.7-14.8-3.3-17-3.7-2.2-.3-4.2-.7-4.5-.9-.3-.2-4.6-1.1-9.5-1.9-5-.9-10.1-1.8-11.5-2.1-1.4-.3-4.1-.7-6-1-1.9-.3-4.6-.7-6-1-1.4-.3-4.1-.7-6-1-1.9-.2-5.3-.7-7.5-1.1-7.4-1.1-9-1.3-15-2-3.3-.3-6.8-.8-7.8-1-1-.2-5.2-.6-9.3-.9-4.2-.4-8.3-.8-9.2-1-1-.1-6.4-.6-12.2-1-5.8-.4-12.1-1-14-1.3C891.1.9 689.4.5 444.8.3L0-.1V1600z"/><path d="M2516 616.7l-616.5 616.5v112.9c0 62.1.2 112.9.5 112.9s292.9-292.4 650.3-649.8L3200 159.5V0h-33.7l-33.8.1L2516 616.7z"/></svg>