<?xml version="1.0" standalone="no"?>
<!DOCTYPE svg PUBLIC "-//W3C//DTD SVG 20010904//EN"
 "http://www.w3.org/TR/2001/REC-SVG-20010904/DTD/svg10.dtd">
<svg version="1.0" xmlns="http://www.w3.org/2000/svg"
 width="1000.000000pt" height="1000.000000pt" viewBox="0 0 1000.000000 1000.000000"
 preserveAspectRatio="xMidYMid meet">
<metadata>
Created by potrace 1.11, written by Peter Selinger 2001-2013
</metadata>
<g transform="translate(0.000000,1000.000000) scale(0.100000,-0.100000)"
fill="#000000" stroke="none">
<path d="M2500 5000 l0 -5000 500 0 500 0 0 4500 0 4500 78 0 c42 1 86 1 97 0
11 0 31 0 45 1 28 1 26 1 100 0 30 0 63 -1 73 0 9 0 33 0 52 0 19 0 41 0 48 0
18 0 138 0 162 -1 11 0 31 0 45 1 14 0 30 1 35 1 6 -1 39 -1 75 -1 36 0 74 0
85 -1 11 0 31 0 45 1 31 1 66 1 103 0 68 -2 83 -3 95 -2 21 2 62 2 217 2 61 0
87 0 98 0 25 2 233 -11 252 -15 11 -2 40 -7 65 -11 25 -4 84 -18 133 -31 249
-69 463 -194 652 -379 78 -77 205 -234 205 -253 0 -5 6 -14 13 -20 45 -38 171
-352 196 -488 6 -32 13 -70 16 -84 19 -103 19 -343 0 -442 -3 -12 -10 -48 -15
-79 -18 -100 -79 -271 -137 -384 -30 -60 -58 -112 -62 -115 -3 -3 -19 -25 -36
-50 -75 -116 -211 -256 -340 -351 -114 -84 -103 -78 -214 -134 -39 -20 -71
-41 -71 -46 0 -9 18 -43 33 -63 17 -23 127 -219 127 -228 0 -4 5 -8 10 -8 6 0
10 -4 10 -9 0 -5 23 -49 51 -98 28 -48 61 -104 71 -123 84 -147 182 -316 188
-323 18 -21 260 125 450 272 108 83 326 301 412 411 74 96 198 282 198 298 0
6 4 12 8 14 12 4 125 232 142 283 7 22 16 45 20 50 8 11 78 220 84 251 2 10
11 46 19 79 9 33 18 78 22 100 3 22 7 47 10 55 2 8 7 38 10 65 3 28 9 70 12
95 13 87 9 529 -5 554 -2 4 -7 29 -9 55 -9 85 -10 96 -16 121 -4 14 -9 36 -11
50 -3 14 -12 52 -21 85 -8 33 -17 68 -20 78 -2 10 -23 73 -45 140 -80 237
-249 541 -417 751 -134 168 -361 374 -553 503 -78 53 -256 157 -262 153 -2 -1
-25 10 -51 24 -42 24 -234 105 -262 110 -5 2 -35 10 -65 20 -142 45 -302 80
-476 103 -27 4 -662 8 -1411 10 l-1363 4 0 -5001z"/>
</g>
</svg>
